<svg width="1080" height="1920" viewBox="0 0 1080 1920" xmlns="http://www.w3.org/2000/svg">
  <defs>
    <linearGradient id="bg" x1="0" y1="0" x2="0" y2="1">
      <stop offset="0%" stop-color="#1a2740"/>
      <stop offset="100%" stop-color="#0a1221"/>
    </linearGradient>
    <linearGradient id="card" x1="0" y1="0" x2="1" y2="1">
      <stop offset="0%" stop-color="#243655" stop-opacity="0.92"/>
      <stop offset="100%" stop-color="#16233d" stop-opacity="0.92"/>
    </linearGradient>
  </defs>
  <rect width="1080" height="1920" fill="url(#bg)"/>

  <rect x="110" y="230" rx="44" ry="44" width="860" height="560" fill="url(#card)" stroke="#7ea3e5" stroke-width="2"/>
  <text x="170" y="320" fill="#dfeaff" font-size="44" font-family="PingFang SC, Arial">CarSpeed</text>
  <rect x="780" y="278" rx="16" ry="16" width="130" height="46" fill="#2b3c5a"/>
  <text x="820" y="311" fill="#7fffcf" font-size="28" font-family="PingFang SC, Arial">LIVE</text>

  <rect x="160" y="380" rx="24" ry="24" width="760" height="105" fill="#2e4367" stroke="#5f7ea9"/>
  <text x="200" y="445" fill="#c8d8ff" font-size="34" font-family="PingFang SC, Arial">GPS速度</text>
  <text x="600" y="445" fill="#8df7d3" font-size="40" font-family="PingFang SC, Arial">12.8 km/h</text>

  <rect x="160" y="505" rx="24" ry="24" width="760" height="105" fill="#2e4367" stroke="#5f7ea9"/>
  <text x="200" y="570" fill="#c8d8ff" font-size="34" font-family="PingFang SC, Arial">加速度</text>
  <text x="600" y="570" fill="#ffd789" font-size="40" font-family="PingFang SC, Arial">1.42 m/s²</text>

  <rect x="160" y="630" rx="24" ry="24" width="760" height="105" fill="#2e4367" stroke="#5f7ea9"/>
  <text x="200" y="695" fill="#c8d8ff" font-size="34" font-family="PingFang SC, Arial">方向角</text>
  <text x="600" y="695" fill="#9ed0ff" font-size="40" font-family="PingFang SC, Arial">NE 46°</text>

  <text x="165" y="760" fill="#9fb3d6" font-size="28" font-family="PingFang SC, Arial">拖动可移动 · 双击切换紧凑模式</text>
</svg>
